<svg width="24" height="24" viewBox="0 0 24 24" fill="none" xmlns="http://www.w3.org/2000/svg">
<g id="linkedin-icon">
<path id="Vector" d="M22.5 12C22.5 6.20101 17.799 1.5 12 1.5C6.20101 1.5 1.5 6.20101 1.5 12C1.5 17.799 6.20101 22.5 12 22.5C17.799 22.5 22.5 17.799 22.5 12Z" fill="#1E1E1E"/>
<path id="Vector_2" d="M9.46392 7.26911C9.46392 7.97002 8.85639 8.53822 8.10696 8.53822C7.35753 8.53822 6.75 7.97002 6.75 7.26911C6.75 6.5682 7.35753 6 8.10696 6C8.85639 6 9.46392 6.5682 9.46392 7.26911Z" fill="#EEEFE9"/>
<path id="Vector_3" d="M6.9375 9.47119H9.25708V16.5001H6.9375V9.47119Z" fill="#EEEFE9"/>
<path id="Vector_4" d="M12.9915 9.47109H10.6719V16.5H12.9915C12.9915 16.5 12.9915 14.2872 12.9915 12.9036C12.9915 12.0732 13.275 11.2392 14.4064 11.2392C15.6851 11.2392 15.6774 12.3259 15.6714 13.1678C15.6636 14.2683 15.6822 15.3914 15.6822 16.5H18.0018V12.7903C17.9822 10.4215 17.3649 9.33008 15.3343 9.33008C14.1283 9.33008 13.3808 9.87756 12.9915 10.3729V9.47109Z" fill="#EEEFE9"/>
</g>
</svg>
