<svg width="24" height="24" viewBox="0 0 24 24" fill="none" xmlns="http://www.w3.org/2000/svg">
<g id="x-icon">
<path id="Vector" d="M22.5 12C22.5 17.796 17.8012 22.5 12 22.5C6.19875 22.5 1.5 17.796 1.5 12C1.5 6.19875 6.19875 1.5 12 1.5C17.8012 1.5 22.5 6.19875 22.5 12Z" fill="#1E1E1E"/>
<path id="Vector_2" d="M13.6426 10.5771L18.1104 5.5H17.0498L13.1709 9.90918L10.0742 5.5H6.5L11.1846 12.168L6.5 17.4941H7.55762L11.6562 12.8359L14.9258 17.4941H18.5L13.6426 10.5771ZM12.1924 12.2266L11.7178 11.5615L7.94141 6.2793H9.56738L12.6143 10.542L13.0889 11.207L17.0498 16.75H15.4238L12.1924 12.2266Z" fill="#EEEFE9"/>
</g>
</svg>
