<svg width="122" height="87" viewBox="0 0 122 87" fill="none" xmlns="http://www.w3.org/2000/svg">
<g id="Layer_1" clip-path="url(#clip0_1_373)">
<g id="Group">
<path id="Vector" d="M24.0613 7.54004C23.5893 7.54004 23.3222 7.57812 23.1797 7.60155V9.94499H23.9455C24.9162 9.94499 25.4891 9.46751 25.4891 8.72347C25.4891 7.94135 24.9518 7.55176 24.0583 7.54004H24.0613Z" fill="#3676BE"/>
<path id="Vector_2" d="M16.3122 7.56641C15.9174 7.56641 15.6473 7.60449 15.5078 7.64257V10.15C15.674 10.1881 15.8789 10.1998 16.1579 10.1998C17.1909 10.1998 17.8291 9.68429 17.8291 8.81429C17.8291 8.03216 17.2799 7.56641 16.3093 7.56641H16.3122Z" fill="#3676BE"/>
<path id="Vector_3" d="M0 0V21.9726H41.3346V0H0ZM11.9982 14.6699H6.50964V6.18081H11.82V7.75677H8.46282V9.5202H11.6271V11.0815H8.46282V13.0969H11.9982V14.6728V14.6699ZM18.9679 10.7769C18.303 11.3949 17.3204 11.6703 16.1717 11.6703C15.9164 11.6703 15.6878 11.6586 15.5068 11.6322V14.667H13.5803V6.29212C14.1799 6.19252 15.0229 6.11636 16.2103 6.11636C17.3976 6.11636 18.2644 6.34192 18.8402 6.79596C19.3894 7.22364 19.7604 7.9296 19.7604 8.76151C19.7604 9.59343 19.4784 10.2994 18.9679 10.7769ZM25.7565 14.6699C25.617 14.4297 25.4122 13.7384 25.1569 12.6926C24.9284 11.6352 24.5573 11.3452 23.7648 11.3334H23.177V14.6728H21.2506V6.29798C21.8769 6.19838 22.809 6.12222 23.8419 6.12222C25.1183 6.12222 26.0118 6.31263 26.6233 6.7901C27.1339 7.19434 27.4159 7.78606 27.4159 8.56525C27.4159 9.64909 26.6382 10.3902 25.8961 10.6568V10.6948C26.4957 10.9351 26.8281 11.5004 27.0448 12.2825C27.312 13.2404 27.5821 14.3477 27.7454 14.6758H25.7536L25.7565 14.6699ZM31.1798 14.7959C30.1972 14.7959 29.2266 14.5439 28.7427 14.2803L29.1375 12.6926C29.66 12.9563 30.4644 13.2228 31.2955 13.2228C32.189 13.2228 32.661 12.8567 32.661 12.303C32.661 11.7494 32.2513 11.4711 31.2183 11.1079C29.7876 10.6158 28.8555 9.83657 28.8555 8.6004C28.8555 7.15333 30.0815 6.04313 32.1089 6.04313C33.0795 6.04313 33.7949 6.24525 34.3055 6.47081L33.8721 8.0204C33.5277 7.85636 32.9133 7.61616 32.0732 7.61616C31.2332 7.61616 30.8236 7.99404 30.8236 8.43343C30.8236 8.97535 31.3074 9.21556 32.4176 9.62859C33.9374 10.1822 34.6498 10.9643 34.6498 12.1595C34.6498 13.5831 33.5396 14.7929 31.1768 14.7929L31.1798 14.7959Z" fill="#3676BE"/>
</g>
<g id="Group_2">
<path id="Vector_4" d="M93.8539 43.9424H93.8272C93.6996 44.4462 93.5719 45.0877 93.4324 45.5799L92.9219 47.3814H94.8246L94.2873 45.5799C94.133 45.076 93.9816 44.4462 93.8539 43.9424Z" fill="#4A8AD2"/>
<path id="Vector_5" d="M54.8113 58.8057C54.3393 58.8057 54.0722 58.8437 53.9297 58.8672V61.2106H54.6955C55.6662 61.2106 56.2391 60.7331 56.2391 59.9891C56.2391 59.207 55.7018 58.8174 54.8083 58.8057H54.8113Z" fill="#4A8AD2"/>
<path id="Vector_6" d="M82.6707 73.7451C82.1987 73.7451 81.9315 73.7832 81.7891 73.8066V76.1501H82.5549C83.5256 76.1501 84.0985 75.6726 84.0985 74.9285C84.0985 74.1464 83.5612 73.7568 82.6677 73.7451H82.6707Z" fill="#4A8AD2"/>
<path id="Vector_7" d="M84.8383 58.8818H84.8116C84.684 59.3857 84.5563 60.0272 84.4168 60.5193L83.9062 62.3208H85.809L85.2717 60.5193C85.1173 60.0155 84.966 59.3857 84.8383 58.8818Z" fill="#4A8AD2"/>
<path id="Vector_8" d="M50.4321 43.9424H50.4054C50.2777 44.4462 50.1501 45.0877 50.0106 45.5799L49.5 47.3814H51.4027L50.8655 45.5799C50.7111 45.076 50.5597 44.4462 50.4321 43.9424Z" fill="#4A8AD2"/>
<path id="Vector_9" d="M30.7644 43.8662C30.2924 43.8662 30.0253 43.9043 29.8828 43.9277V46.2712H30.6487C31.6193 46.2712 32.1922 45.7937 32.1922 45.0496C32.1922 44.2675 31.6549 43.8779 30.7614 43.8662H30.7644Z" fill="#4A8AD2"/>
<path id="Vector_10" d="M22.2836 43.9424H22.2569C22.1293 44.4462 22.0016 45.0877 21.8621 45.5799L21.3516 47.3814H23.2543L22.717 45.5799C22.5627 45.076 22.4113 44.4462 22.2836 43.9424Z" fill="#4A8AD2"/>
<path id="Vector_11" d="M93.1863 58.8057C92.7143 58.8057 92.4472 58.8437 92.3047 58.8672V61.2106H93.0705C94.0412 61.2106 94.6141 60.7331 94.6141 59.9891C94.6141 59.207 94.0768 58.8174 93.1833 58.8057H93.1863Z" fill="#4A8AD2"/>
<path id="Vector_12" d="M76.7099 34.6711C78.0249 34.6711 78.7788 33.4379 78.7788 31.7858C78.7788 30.2625 78.0397 28.9531 76.698 28.9531C75.3563 28.9531 74.6172 30.1864 74.6172 31.8385C74.6172 33.4906 75.4097 34.6711 76.7099 34.6711Z" fill="#4A8AD2"/>
<path id="Vector_13" d="M86.7461 30.201C86.7461 29.4189 86.197 28.9531 85.2263 28.9531C84.8315 28.9531 84.5614 28.9912 84.4219 29.0293V31.5368C84.5881 31.5748 84.7929 31.5866 85.0719 31.5866C86.1049 31.5866 86.7431 31.071 86.7431 30.201H86.7461Z" fill="#4A8AD2"/>
<path id="Vector_14" d="M41.3321 21.9727V35.8018H3.03125V57.7745H44.3094V72.3213H57.106V86.9971H121.998V21.9727H41.3321ZM106.244 27.5676H108.515L110.302 30.6785C110.813 31.5719 111.323 32.6324 111.706 33.5873H111.745C111.617 32.4654 111.579 31.32 111.579 30.0487V27.5676H113.366V36.0567H111.323L109.486 32.7817C108.975 31.8737 108.414 30.7781 107.993 29.7851L107.954 29.7968C108.005 30.9187 108.031 32.1139 108.031 33.4994V36.0567H106.244V27.5676ZM105.683 44.8885C105.683 45.9724 104.906 46.7135 104.164 46.98V47.0181C104.763 47.2583 105.096 47.8237 105.312 48.6058C105.58 49.5637 105.85 50.6709 106.016 50.999H104.024C103.885 50.7588 103.68 50.0675 103.424 49.0217C103.196 47.9643 102.825 47.6743 102.032 47.6626H101.445V51.0019H99.5181V42.6271C100.144 42.5275 101.076 42.4513 102.109 42.4513C103.386 42.4513 104.279 42.6417 104.891 43.1192C105.401 43.5235 105.683 44.1152 105.683 44.8944V44.8885ZM99.4944 27.5676H102.047L104.716 36.0567H102.623L101.958 33.8773H99.4944L98.8829 36.0567H96.8674L99.4973 27.5676H99.4944ZM96.1757 63.5423C96.4429 64.5001 96.713 65.6074 96.8792 65.9355H94.8875C94.7479 65.6953 94.5431 65.004 94.2878 63.9582C94.0593 62.9007 93.6882 62.6107 92.8957 62.599H92.3079V65.9384H90.3815V57.5636C91.0078 57.464 91.9399 57.3878 92.9729 57.3878C94.2493 57.3878 95.1427 57.5753 95.7542 58.0557C96.2648 58.4599 96.5468 59.0516 96.5468 59.8308C96.5468 60.9147 95.7691 61.6558 95.027 61.9224V61.9604C95.6266 62.2006 95.959 62.766 96.1757 63.5481V63.5423ZM95.7661 50.9961L95.1012 48.8167H92.6374L92.0259 50.9961H90.0104L92.6404 42.507H95.1932L97.8618 50.9961H95.7691H95.7661ZM90.2894 27.5676H95.5999V29.1436H92.2426V30.907H95.4069V32.4683H92.2426V34.4837H95.778V36.0596H90.2894V27.5705V27.5676ZM90.0075 44.1181H87.6595V50.9961H85.7063V44.1181H83.3969V42.507H90.0075V44.1181ZM82.4886 27.6789C83.0882 27.5793 83.9312 27.5032 85.1185 27.5032C86.3059 27.5032 87.1727 27.7287 87.7485 28.1828C88.2977 28.6104 88.6687 29.3164 88.6687 30.1483C88.6687 30.9802 88.3867 31.6862 87.8762 32.1637C87.2112 32.7817 86.2287 33.0571 85.08 33.0571C84.8247 33.0571 84.5961 33.0454 84.415 33.019V36.0538H82.4886V27.6789ZM79.541 60.7829V62.3442H76.3767V64.3595H79.912V65.9355H74.4235V57.4464H79.7339V59.0224H76.3767V60.7858H79.541V60.7829ZM79.8081 50.9961L77.9707 47.7211C77.4602 46.8131 76.8991 45.7175 76.4776 44.7245L76.439 44.7362C76.4895 45.8581 76.5162 47.0533 76.5162 48.4388V50.9961H74.7292V42.507H77.0001L78.787 45.6179C79.2976 46.5113 79.8081 47.5717 80.1911 48.5267H80.2296C80.102 47.4048 80.0634 46.2594 80.0634 44.9881V42.507H81.8504V50.9961H79.8081ZM76.7448 27.4299C79.3866 27.4299 80.8293 29.3838 80.8293 31.7243C80.8293 34.5071 79.1195 36.1944 76.6053 36.1944C74.091 36.1944 72.5594 34.2933 72.5594 31.8737C72.5594 29.3281 74.2068 27.427 76.7448 27.427V27.4299ZM72.5208 45.8464V47.4077H69.3565V49.4231H72.8918V50.999H67.4033V42.5099H72.7137V44.0859H69.3565V45.8493H72.5208V45.8464ZM65.0553 27.6818C65.6817 27.5823 66.6137 27.5061 67.6467 27.5061C68.9231 27.5061 69.8166 27.6965 70.4281 28.174C70.9386 28.5782 71.2206 29.1699 71.2206 29.9491C71.2206 31.033 70.4429 31.7741 69.7008 32.0406V32.0787C70.3004 32.3189 70.6329 32.8843 70.8496 33.6664C71.1167 34.6243 71.3869 35.7315 71.5531 36.0596H69.5613C69.4218 35.8194 69.217 35.1281 68.9617 34.0824C68.7331 33.0249 68.3621 32.7349 67.5695 32.7232H66.9818V36.0626H65.0553V27.6877V27.6818ZM55.9543 27.5676H57.9075V32.4537C57.9075 33.9154 58.4685 34.6565 59.4659 34.6565C60.4633 34.6565 61.048 33.9505 61.048 32.4537V27.5676H62.9894V32.3277C62.9894 34.9465 61.6506 36.1944 59.4036 36.1944C57.1565 36.1944 55.9573 35.0109 55.9573 32.3013V27.5647L55.9543 27.5676ZM48.7679 27.5676H54.0783V29.1436H50.7211V30.907H53.8854V32.4683H50.7211V34.4837H54.2564V36.0596H48.7679V27.5705V27.5676ZM17.2943 47.1031C16.6294 47.7211 15.6468 47.9965 14.4981 47.9965C14.2428 47.9965 14.0142 47.9848 13.8331 47.9584V50.9932H11.9067V42.6183C12.5063 42.5187 13.3493 42.4426 14.5367 42.4426C15.724 42.4426 16.5908 42.6681 17.1666 43.1222C17.7158 43.5498 18.0868 44.2558 18.0868 45.0877C18.0868 45.9196 17.8048 46.6256 17.2943 47.1031ZM24.1987 50.9961L23.5338 48.8167H21.07L20.4585 50.9961H18.443L21.073 42.507H23.6258L26.2944 50.9961H24.2017H24.1987ZM32.4567 50.9961C32.3172 50.7559 32.1124 50.0646 31.8571 49.0188C31.6285 47.9613 31.2575 47.6713 30.4649 47.6596H29.8772V50.999H27.9507V42.6242C28.577 42.5246 29.5091 42.4484 30.5421 42.4484C31.8185 42.4484 32.712 42.6388 33.3235 43.1163C33.834 43.5205 34.116 44.1123 34.116 44.8914C34.116 45.9753 33.3383 46.7164 32.5962 46.983V47.021C33.1958 47.2612 33.5283 47.8266 33.745 48.6087C34.0121 49.5666 34.2822 50.6739 34.4485 51.0019H32.4567V50.9961ZM41.4034 50.9961H36.0306V42.507H37.9838V49.385H41.4034V50.9961ZM45.0159 50.9961H43.0627V42.507H45.0159V50.9961ZM49.2161 48.8167L48.6046 50.9961H46.5891L49.2191 42.507H51.7719L54.4404 50.9961H52.3477L51.6828 48.8167H49.2191H49.2161ZM56.5035 65.9355C56.3639 65.6953 56.1591 65.004 55.9039 63.9582C55.6753 62.9007 55.3042 62.6107 54.5117 62.599H53.9239V65.9384H51.9975V57.5636C52.6238 57.464 53.5559 57.3878 54.5889 57.3878C55.8653 57.3878 56.7587 57.5753 57.3702 58.0557C57.8808 58.4599 58.1628 59.0516 58.1628 59.8308C58.1628 60.9147 57.3851 61.6558 56.643 61.9224V61.9604C57.2426 62.2006 57.575 62.766 57.7917 63.5481C58.0589 64.506 58.329 65.6133 58.4952 65.9413H56.5035V65.9355ZM58.8129 47.5688C58.5309 46.5729 58.24 45.366 58.0351 44.2558H58.0084C57.958 45.4011 57.9194 46.7105 57.8541 47.7709L57.6997 50.9961H55.9009L56.45 42.507H59.0414L59.8844 45.3396C60.1516 46.3209 60.4217 47.3813 60.6117 48.3744H60.6503C60.8937 47.3931 61.1875 46.2711 61.4666 45.325L62.3868 42.5041H64.9277L65.3997 50.9932H63.4969L63.3693 47.7446C63.3307 46.7252 63.2921 45.489 63.2921 44.2558H63.2535C62.9864 45.3396 62.6272 46.5494 62.2948 47.5425L61.2469 50.8555H59.7271L58.8069 47.5688H58.8129ZM59.9497 57.4435H65.2602V59.0194H61.9029V60.7829H65.0672V62.3442H61.9029V64.3595H65.4383V65.9355H59.9497V57.4464V57.4435ZM67.4924 80.9979C66.5098 80.9979 65.5392 80.746 65.0553 80.4823L65.4501 78.8947C65.9726 79.1583 66.777 79.4249 67.6081 79.4249C68.5016 79.4249 68.9736 79.0587 68.9736 78.5051C68.9736 77.9514 68.5639 77.6732 67.531 77.3099C66.1002 76.8178 65.1681 76.0386 65.1681 74.8025C65.1681 73.3525 66.3941 72.2452 68.4215 72.2452C69.3921 72.2452 70.1075 72.4473 70.6181 72.6729L70.1847 74.2225C69.8403 74.0584 69.2259 73.8182 68.3858 73.8182C67.5458 73.8182 67.1362 74.1961 67.1362 74.6384C67.1362 75.1803 67.62 75.4205 68.7331 75.8336C70.253 76.3872 70.9654 77.1693 70.9654 78.3645C70.9654 79.7881 69.8552 80.9979 67.4924 80.9979ZM69.2526 66.0585C68.2701 66.0585 67.2994 65.8066 66.8156 65.543L67.2104 63.9553C67.7328 64.2189 68.5372 64.4855 69.3684 64.4855C70.2619 64.4855 70.7338 64.1193 70.7338 63.5657C70.7338 63.012 70.3242 62.7338 69.2912 62.3705C67.8604 61.8784 66.9284 61.0992 66.9284 59.8631C66.9284 58.416 68.1543 57.3058 70.1817 57.3058C71.1524 57.3058 71.8677 57.5079 72.3783 57.7335L71.9449 59.2831C71.6006 59.119 70.9861 58.8788 70.1461 58.8788C69.306 58.8788 68.8964 59.2567 68.8964 59.6961C68.8964 60.238 69.3802 60.4782 70.4904 60.8912C72.0102 61.4449 72.7226 62.227 72.7226 63.4221C72.7226 64.8458 71.6125 66.0556 69.2496 66.0556L69.2526 66.0585ZM78.1488 80.8719H72.6603V72.3829H77.9707V73.9588H74.6135V75.7222H77.7778V77.2836H74.6135V79.2989H78.1488V80.8749V80.8719ZM84.3646 80.8719C84.2251 80.6317 84.0203 79.9404 83.765 78.8947C83.5364 77.8372 83.1654 77.5472 82.3728 77.5355H81.7851V80.8719H79.8586V72.4971C80.4849 72.3975 81.417 72.3213 82.45 72.3213C83.7264 72.3213 84.6199 72.5088 85.2313 72.9892C85.7419 73.3935 86.0239 73.9852 86.0239 74.7644C86.0239 75.8482 85.2462 76.5893 84.5041 76.8559V76.894C85.1037 77.1342 85.4362 77.6995 85.6529 78.4816C85.92 79.4395 86.1901 80.5468 86.3564 80.8749H84.3646V80.8719ZM86.0862 63.7532H83.6225L83.011 65.9326H80.9955L83.6255 57.4435H86.1783L88.8468 65.9326H86.7541L86.0892 63.7532H86.0862ZM92.0348 80.8719H89.764L87.0064 72.3829H89.1377L90.1855 75.9712C90.4794 76.9789 90.7466 77.9485 90.9514 79.006H90.99C91.2067 77.9866 91.4738 76.9789 91.7677 76.0093L92.866 72.3829H94.9349L92.0378 80.8719H92.0348ZM98.1853 80.8719H96.2321V72.3829H98.1853V80.8719ZM97.8796 61.814C97.8796 58.9169 99.9723 57.3058 102.576 57.3058C103.585 57.3058 104.351 57.5079 104.695 57.6837L104.3 59.2069C103.905 59.0429 103.356 58.8905 102.668 58.8905C101.124 58.8905 99.9218 59.8103 99.9218 61.6997C99.9218 63.3987 100.943 64.4708 102.679 64.4708C103.267 64.4708 103.917 64.3449 104.3 64.1926L104.594 65.6924C104.238 65.8681 103.433 66.0585 102.386 66.0585C99.4112 66.0585 97.8796 64.2336 97.8796 61.814ZM104.656 79.4102C105.244 79.4102 105.894 79.2843 106.277 79.132L106.571 80.6317C106.215 80.8075 105.41 80.9979 104.362 80.9979C101.388 80.9979 99.8565 79.173 99.8565 76.7534C99.8565 73.8563 101.949 72.2452 104.552 72.2452C105.562 72.2452 106.328 72.4473 106.672 72.6231L106.277 74.1463C105.882 73.9822 105.333 73.8329 104.644 73.8329C103.101 73.8329 101.899 74.7527 101.899 76.6421C101.899 78.341 102.92 79.4132 104.656 79.4132V79.4102ZM108.204 65.9326H106.25V57.4435H108.204V60.7067H111.406V57.4435H113.348V65.9326H111.406V62.3793H108.204V65.9326ZM113.719 80.8719H108.23V72.3829H113.541V73.9588H110.183V75.7222H113.348V77.2836H110.183V79.2989H113.719V80.8749V80.8719ZM111.282 47.4546V50.9932H109.34V47.5161L106.621 42.5041H108.842L109.723 44.5458C109.991 45.1639 110.169 45.615 110.388 46.1715H110.415C110.608 45.6413 110.81 45.1522 111.065 44.5458L111.932 42.5041H114.114L111.279 47.4546H111.282Z" fill="#4A8AD2"/>
<path id="Vector_15" d="M14.6405 43.8926C14.2457 43.8926 13.9756 43.9307 13.8361 43.9687V46.4762C14.0023 46.5143 14.2071 46.526 14.4861 46.526C15.5191 46.526 16.1573 46.0105 16.1573 45.1405C16.1573 44.3583 15.6082 43.8926 14.6375 43.8926H14.6405Z" fill="#4A8AD2"/>
<path id="Vector_16" d="M101.139 30.6404C100.985 30.1366 100.833 29.5068 100.706 29.0029H100.679C100.551 29.5068 100.424 30.1483 100.284 30.6404L99.7734 32.4419H101.676L101.139 30.6404Z" fill="#4A8AD2"/>
<path id="Vector_17" d="M69.2967 30.1131C69.2967 29.331 68.7595 28.9414 67.866 28.9297C67.394 28.9297 67.1269 28.9678 66.9844 28.9912V31.3346H67.7502C68.7209 31.3346 69.2938 30.8572 69.2938 30.1131H69.2967Z" fill="#4A8AD2"/>
<path id="Vector_18" d="M101.448 46.2741H102.214C103.185 46.2741 103.758 45.7966 103.758 45.0526C103.758 44.2705 103.22 43.8809 102.327 43.8691C101.855 43.8691 101.588 43.9072 101.445 43.9307V46.2741H101.448Z" fill="#4A8AD2"/>
</g>
</g>
<defs>
<clipPath id="clip0_1_373">
<rect width="122" height="87" fill="white"/>
</clipPath>
</defs>
</svg>
