<svg width="48" height="26" viewBox="0 0 48 26" fill="none" xmlns="http://www.w3.org/2000/svg">
<g id="mute_2_">
<g id="flag_3_">
<path id="Vector" d="M47.1935 11.2339H25.8359V25.4826H47.1935V11.2339Z" fill="#0C4DA2"/>
<g id="Group">
<path id="Vector_2" d="M36.5028 12.7827L36.7059 13.4148L37.3689 13.4111L36.831 13.7997L37.0385 14.4303L36.5028 14.0373L35.9686 14.4303L36.1761 13.7997L35.6367 13.4111L36.2997 13.4148L36.5028 12.7827Z" fill="#FFF200"/>
<path id="Vector_3" d="M36.5028 22.2881L36.7059 22.9184L37.3689 22.9154L36.831 23.3047L37.0385 23.9357L36.5028 23.5435L35.9686 23.9357L36.1761 23.3047L35.6367 22.9154L36.2997 22.9184L36.5028 22.2881Z" fill="#FFF200"/>
<path id="Vector_4" d="M34.1373 13.415L34.3404 14.0464L35.0034 14.0449L34.4662 14.4312L34.6738 15.0611L34.1373 14.6689L33.6031 15.0611L33.8099 14.4312L33.2734 14.0449L33.9364 14.0464L34.1373 13.415Z" fill="#FFF200"/>
<path id="Vector_5" d="M32.3988 15.1597L32.6004 15.791L33.2649 15.7866L32.7248 16.1759L32.9323 16.8058L32.3988 16.4128L31.8638 16.8058L32.0714 16.1759L31.5312 15.7866L32.1964 15.791L32.3988 15.1597Z" fill="#FFF200"/>
<path id="Vector_6" d="M31.7567 17.5303L31.9576 18.1605L32.6228 18.1576L32.0842 18.5461L32.2895 19.1753L31.7567 18.7827L31.2218 19.1753L31.4307 18.5461L30.8906 18.1576L31.5544 18.1605L31.7567 17.5303Z" fill="#FFF200"/>
<path id="Vector_7" d="M32.3927 19.8999L32.5965 20.5342L33.258 20.529L32.7201 20.9175L32.9291 21.5474L32.3927 21.1534L31.8577 21.5474L32.0667 20.9175L31.5273 20.5301L32.1904 20.5342L32.3927 19.8999Z" fill="#FFF200"/>
<path id="Vector_8" d="M34.1373 21.644L34.3404 22.2761L35.0034 22.2728L34.4662 22.6602L34.6738 23.2909L34.1373 22.899L33.6031 23.2909L33.8099 22.6602L33.2734 22.2728L33.9364 22.2761L34.1373 21.644Z" fill="#FFF200"/>
<path id="Vector_9" d="M38.8715 13.415L38.6691 14.0464L38.0039 14.0449L38.5433 14.4312L38.3357 15.0611L38.8715 14.6689L39.4057 15.0611L39.1989 14.4312L39.7361 14.0449L39.0746 14.0464L38.8715 13.415Z" fill="#FFF200"/>
<path id="Vector_10" d="M40.609 15.1597L40.4059 15.791L39.7422 15.7866L40.2808 16.1759L40.0733 16.8058L40.609 16.4128L41.1447 16.8058L40.9357 16.1759L41.4736 15.7866L40.8106 15.791L40.609 15.1597Z" fill="#FFF200"/>
<path id="Vector_11" d="M41.2504 17.5308L41.048 18.161L40.3828 18.1581L40.9229 18.5466L40.7147 19.1757L41.2504 18.7832L41.7861 19.1757L41.5786 18.5466L42.1157 18.1581L41.4528 18.161L41.2504 17.5308Z" fill="#FFF200"/>
<path id="Vector_12" d="M40.6139 19.8999L40.4137 20.5342L39.75 20.529L40.2894 20.9175L40.0804 21.5474L40.6139 21.1534L41.151 21.5474L40.9436 20.9175L41.4822 20.5301L40.8184 20.5342L40.6139 19.8999Z" fill="#FFF200"/>
<path id="Vector_13" d="M38.8715 21.644L38.6691 22.2761L38.0039 22.2728L38.5433 22.6602L38.3357 23.2909L38.8715 22.899L39.4057 23.2909L39.1989 22.6602L39.7361 22.2728L39.0746 22.2761L38.8715 21.644Z" fill="#FFF200"/>
</g>
</g>
<g id="hc_3_">
<path id="Vector_14" d="M29.2416 8.39132V7.21284C28.8119 6.84565 27.0996 6.11057 26.0547 5.87988V6.70953C27.249 7.00276 28.7376 7.86628 29.2416 8.39132Z" fill="#7A868E"/>
<path id="Vector_15" d="M30.1075 10.15H31.1222C31.1524 8.66357 29.9456 7.74305 29.7734 7.60986V9.02634C30.1605 9.65439 30.1075 10.15 30.1075 10.15Z" fill="#7A868E"/>
<path id="Vector_16" d="M32.6328 7.15771V8.4366C33.1427 8.97046 33.4489 9.38843 33.6917 10.1563H34.766C34.479 8.98221 33.7962 8.0227 32.6328 7.15771Z" fill="#7A868E"/>
<path id="Vector_17" d="M31.9785 7.85866V6.70632C30.9932 6.0687 29.044 5.19528 27.0977 4.78906V5.61543C28.9682 6.06871 30.9564 7.0382 31.9785 7.85866Z" fill="#7A868E"/>
<path id="Vector_18" d="M34.7416 7.15906V6.01886C33.5584 5.27307 31.1235 4.23075 28.25 3.62402V4.44892C31.0094 5.11559 33.1036 6.06667 34.7416 7.15906Z" fill="#7A868E"/>
<path id="Vector_19" d="M35.5061 6.50439C35.5054 6.50364 35.5039 7.73031 35.5039 7.73031C36.2582 8.32928 36.9881 9.11812 37.4745 10.156H38.6151C38.2243 8.86423 36.7644 7.29837 35.5061 6.50439Z" fill="#7A868E"/>
<path id="Vector_20" d="M37.8222 6.44953V5.30895C35.5602 3.97083 32.1698 2.79495 29.4766 2.32031V3.14261C32.5178 3.75299 36.1408 5.2556 37.8222 6.44953Z" fill="#7A868E"/>
<path id="Vector_21" d="M41.4821 10.1564H42.6764C41.8177 8.09932 39.6653 6.44994 38.6602 5.82227V7.03236C40.1826 8.16002 40.7456 8.96616 41.4821 10.1564Z" fill="#7A868E"/>
<path id="Vector_22" d="M40.855 5.72927V4.54784C39.0228 3.42644 35.3156 1.74868 30.8008 0.878906V1.7373C34.2357 2.45069 38.6151 4.15489 40.855 5.72927Z" fill="#7A868E"/>
<path id="Vector_23" d="M45.3566 10.1559H46.6634C45.2145 7.69045 43.5567 6.28095 41.7656 5.11572V6.35381C43.0931 7.28612 44.5155 8.67612 45.3566 10.1559Z" fill="#7A868E"/>
<path id="Vector_24" d="M25.1963 6.47827V5.6994C24.0212 5.47791 21.9549 5.33734 21.0469 5.45546V6.06584C22.4104 5.99482 24.4178 6.24833 25.1963 6.47827Z" fill="#7A868E"/>
<path id="Vector_25" d="M20.1337 6.12175V5.53857C17.9519 5.7667 16.4555 6.51614 15.5898 7.1556V7.65743C16.826 6.65964 18.5384 6.24646 20.1337 6.12175Z" fill="#7A868E"/>
<path id="Vector_26" d="M15.0842 8.1806V7.61328C13.0772 9.86826 15.5883 11.7462 15.8554 11.9331V11.1619C14.4517 10.1012 14.6166 8.80793 15.0842 8.1806Z" fill="#7A868E"/>
<path id="Vector_27" d="M16.6172 11.6396V12.4664C17.9799 13.2206 19.3516 13.6974 21.3027 14.047L21.2887 12.9263C19.9627 12.846 18.1404 12.4678 16.6172 11.6396Z" fill="#7A868E"/>
<path id="Vector_28" d="M21.9551 12.9613L21.9492 14.1269C23.0898 14.2218 24.1671 14.2505 24.7543 14.2498V12.9385C23.8882 12.9966 22.2833 13.0076 21.9551 12.9613Z" fill="#7A868E"/>
<path id="Vector_29" d="M26.2407 5.41471V4.61999C24.8359 4.33524 22.1133 4.12331 20.5 4.27417V4.89227C22.6291 4.81353 24.7344 5.0858 26.2407 5.41471Z" fill="#7A868E"/>
<path id="Vector_30" d="M20.5647 16.2939V15.0462C18.4757 14.8612 15.264 14.132 13.2695 12.668V13.5002C15.4568 15.1496 18.916 16.0643 20.5647 16.2939Z" fill="#7A868E"/>
<path id="Vector_31" d="M12.5143 12.8755V12.0514C10.7446 10.3685 11.0901 8.65658 12.2329 7.55352V7.03809C10.0364 9.03258 10.841 11.4469 12.5143 12.8755Z" fill="#7A868E"/>
<path id="Vector_32" d="M21.3008 15.1133V16.4051C22.5723 16.5839 23.6746 16.6412 24.7534 16.6412V15.2155C23.59 15.2218 21.8173 15.1615 21.3008 15.1133Z" fill="#7A868E"/>
<path id="Vector_33" d="M12.8242 6.5526V7.03827C14.7275 5.62213 17.5819 5.05113 19.5881 4.94258V4.34912C17.1035 4.51135 14.2492 5.46356 12.8242 6.5526Z" fill="#7A868E"/>
<path id="Vector_34" d="M9.72656 13.6318V14.5248C12.4569 16.9873 16.9489 18.3282 19.6627 18.7962V17.4045C17.1623 17.1241 12.6442 16.1547 9.72656 13.6318Z" fill="#7A868E"/>
<path id="Vector_35" d="M27.3952 4.24493V3.46053C25.6306 3.13934 22.582 2.78908 19.7266 3.05028V3.6717C22.1265 3.50468 25.5136 3.81667 27.3952 4.24493Z" fill="#7A868E"/>
<path id="Vector_36" d="M20.4688 17.4951V18.9351C21.6792 19.1772 23.6697 19.2898 24.7543 19.3296V17.7247C24.1082 17.7475 21.276 17.5849 20.4688 17.4951Z" fill="#7A868E"/>
<path id="Vector_37" d="M18.8108 3.72927V3.12549C16.6882 3.30799 12.8927 4.06406 10.375 5.7683V6.25725C12.8254 4.58835 16.618 3.8481 18.8108 3.72927Z" fill="#7A868E"/>
<path id="Vector_38" d="M9.68288 6.75475V6.25732C8.53088 7.126 5.7067 10.055 8.97609 13.7622V12.863C8.24945 12.0507 6.49517 9.41926 9.68288 6.75475Z" fill="#7A868E"/>
<path id="Vector_39" d="M28.621 2.95831V2.15326C26.4841 1.73386 22.3206 1.37109 19.0469 1.69227V2.31444C21.9409 2.09072 26.0573 2.41673 28.621 2.95831Z" fill="#7A868E"/>
<path id="Vector_40" d="M19.5742 19.9614V21.4846C21.1861 21.7981 23.1927 21.9924 24.7505 22.0454V20.3169C22.8874 20.2852 21.2803 20.1969 19.5742 19.9614Z" fill="#7A868E"/>
<path id="Vector_41" d="M18.6958 21.3405V19.8666C14.2152 19.233 9.27802 17.6009 6.21875 14.6011V15.5518C9.84315 19.1624 15.8558 20.8269 18.6958 21.3405Z" fill="#7A868E"/>
<path id="Vector_42" d="M7.89844 4.90542V5.38484C10.8937 3.47828 14.9975 2.65888 18.1322 2.38076V1.77441C15.1186 2.03561 10.7049 3.06216 7.89844 4.90542Z" fill="#7A868E"/>
<path id="Vector_43" d="M5.4611 14.6307V13.6509C4.28815 12.0519 3.13766 8.89807 7.19032 5.87779V5.38477C2.63876 8.63905 3.77305 12.6222 5.4611 14.6307Z" fill="#7A868E"/>
<path id="Vector_44" d="M2.32031 15.2456V16.3074C5.75853 20.768 12.858 23.3935 17.2723 24.3236V22.6951C12.6343 21.91 5.58744 19.6377 2.32031 15.2456Z" fill="#7A868E"/>
<path id="Vector_45" d="M29.9344 1.55296V0.71702C27.8211 0.27554 22.6841 -0.293998 18.1602 0.176944V0.819308C21.9431 0.486338 26.7166 0.892553 29.9344 1.55296Z" fill="#7A868E"/>
<path id="Vector_46" d="M17.2461 0.897579V0.269531C13.3204 0.670171 8.44614 2.02784 5.59766 3.88915V4.38696C9.1761 2.19266 13.9245 1.21175 17.2461 0.897579Z" fill="#7A868E"/>
<path id="Vector_47" d="M18.2305 22.8506V24.5202C19.2386 24.777 23.0646 25.3245 24.7519 25.3378V23.4238C22.1772 23.3421 19.5469 23.0625 18.2305 22.8506Z" fill="#7A868E"/>
<path id="Vector_48" d="M4.83079 4.89225V4.38672C3.67846 5.1299 -1.77708 9.22563 1.57433 15.1367V13.9446C-0.521741 9.58731 2.67332 6.42499 4.83079 4.89225Z" fill="#7A868E"/>
</g>
</g>
</svg>
