<svg width="229" height="58" viewBox="0 0 229 58" fill="none" xmlns="http://www.w3.org/2000/svg">
<g id="Layer_1">
<path id="line_4_" d="M118.262 25.2203H117.423V57.231H118.262V25.2203Z" fill="#878D91"/>
<g id="mute_2_">
<g id="flag_3_">
<path id="Vector" d="M104.866 25.2302H56.8985V57.2318H104.866V25.2302Z" fill="#0C4DA2"/>
<g id="Group">
<path id="Vector_2" d="M80.8578 28.709L81.314 30.1287L82.803 30.1204L81.5949 30.993L82.061 32.4093L80.8578 31.5268L79.6579 32.4093L80.124 30.993L78.9127 30.1204L80.4016 30.1287L80.8578 28.709Z" fill="#FFF200"/>
<path id="Vector_3" d="M80.8578 50.0568L81.314 51.4723L82.803 51.4657L81.5949 52.34L82.061 53.7571L80.8578 52.8763L79.6579 53.7571L80.124 52.34L78.9127 51.4657L80.4016 51.4723L80.8578 50.0568Z" fill="#FFF200"/>
<path id="Vector_4" d="M75.547 30.1287L76.0031 31.5467L77.4922 31.5433L76.2858 32.4109L76.7518 33.8256L75.547 32.9448L74.3472 33.8256L74.8116 32.4109L73.6068 31.5433L75.0958 31.5467L75.547 30.1287Z" fill="#FFF200"/>
<path id="Vector_5" d="M71.6402 34.0471L72.0929 35.4651L73.5853 35.4552L72.3723 36.3294L72.8383 37.7441L71.6402 36.8615L70.4386 37.7441L70.9047 36.3294L69.6916 35.4552L71.1856 35.4651L71.6402 34.0471Z" fill="#FFF200"/>
<path id="Vector_6" d="M70.1974 39.3724L70.6485 40.7878L72.1425 40.7812L70.9328 41.6539L71.3939 43.0669L70.1974 42.1852L68.9959 43.0669L69.4652 41.6539L68.2521 40.7812L69.7429 40.7878L70.1974 39.3724Z" fill="#FFF200"/>
<path id="Vector_7" d="M71.622 44.694L72.0798 46.1185L73.5654 46.107L72.3574 46.9795L72.8267 48.3942L71.622 47.5092L70.4204 48.3942L70.8898 46.9795L69.6784 46.1094L71.1675 46.1185L71.622 44.694Z" fill="#FFF200"/>
<path id="Vector_8" d="M75.547 48.6108L76.0031 50.0304L77.4922 50.0229L76.2858 50.893L76.7518 52.3094L75.547 51.4293L74.3472 52.3094L74.8116 50.893L73.6068 50.0229L75.0958 50.0304L75.547 48.6108Z" fill="#FFF200"/>
<path id="Vector_9" d="M86.1744 30.1287L85.7199 31.5467L84.226 31.5433L85.4373 32.4109L84.9712 33.8256L86.1744 32.9448L87.3743 33.8256L86.9098 32.4109L88.1162 31.5433L86.6306 31.5467L86.1744 30.1287Z" fill="#FFF200"/>
<path id="Vector_10" d="M90.0829 34.0471L89.6268 35.4651L88.1361 35.4552L89.3459 36.3294L88.8798 37.7441L90.0829 36.8615L91.2861 37.7441L90.8167 36.3294L92.0248 35.4552L90.5358 35.4651L90.0829 34.0471Z" fill="#FFF200"/>
<path id="Vector_11" d="M91.5241 39.3724L91.0696 40.7878L89.5755 40.7812L90.7886 41.6539L90.3209 43.0669L91.5241 42.1852L92.7272 43.0669L92.2612 41.6539L93.4675 40.7812L91.9786 40.7878L91.5241 39.3724Z" fill="#FFF200"/>
<path id="Vector_12" d="M90.0929 44.694L89.6433 46.1185L88.1526 46.107L89.364 46.9795L88.8947 48.3942L90.0929 47.5092L91.2993 48.3942L90.8333 46.9795L92.043 46.1094L90.5523 46.1185L90.0929 44.694Z" fill="#FFF200"/>
<path id="Vector_13" d="M86.1744 48.6108L85.7199 50.0304L84.226 50.0229L85.4373 50.893L84.9712 52.3094L86.1744 51.4293L87.3743 52.3094L86.9098 50.893L88.1162 50.0229L86.6306 50.0304L86.1744 48.6108Z" fill="#FFF200"/>
</g>
</g>
<g id="hc_3_">
<path id="Vector_14" d="M64.5486 18.8468V16.2C63.5835 15.3753 59.7376 13.7244 57.3909 13.2063V15.0696C60.0732 15.7282 63.4165 17.6676 64.5486 18.8468Z" fill="#7A868E"/>
<path id="Vector_15" d="M66.4987 22.7959H68.7777C68.8455 19.4574 66.1351 17.39 65.7484 17.0909V20.2722C66.6177 21.6827 66.4987 22.7959 66.4987 22.7959Z" fill="#7A868E"/>
<path id="Vector_16" d="M72.169 16.0753V18.9476C73.3143 20.1466 74.0018 21.0853 74.5472 22.8099H76.9601C76.3155 20.173 74.7818 18.018 72.169 16.0753Z" fill="#7A868E"/>
<path id="Vector_17" d="M70.6997 17.6503V15.0622C68.4869 13.6301 64.109 11.6685 59.7377 10.7562V12.6121C63.9388 13.6302 68.4042 15.8076 70.6997 17.6503Z" fill="#7A868E"/>
<path id="Vector_18" d="M76.9039 16.0794V13.5186C74.2463 11.8437 68.7777 9.50267 62.3241 8.14001V9.99268C68.5216 11.49 73.225 13.626 76.9039 16.0794Z" fill="#7A868E"/>
<path id="Vector_19" d="M78.6201 14.6086C78.6184 14.6069 78.6151 17.3619 78.6151 17.3619C80.3092 18.7071 81.9486 20.4788 83.041 22.8099H85.6026C84.725 19.9086 81.4461 16.3918 78.6201 14.6086Z" fill="#7A868E"/>
<path id="Vector_20" d="M83.8227 14.4855V11.9238C78.7424 8.91849 71.1278 6.27754 65.079 5.21155V7.05838C71.9095 8.42924 80.0463 11.804 83.8227 14.4855Z" fill="#7A868E"/>
<path id="Vector_21" d="M92.0397 22.8099H94.722C92.7933 18.1898 87.9593 14.4854 85.7018 13.0757V15.7935C89.1211 18.3262 90.3854 20.1367 92.0397 22.8099Z" fill="#7A868E"/>
<path id="Vector_22" d="M90.6332 12.8675V10.2141C86.5182 7.6955 78.1921 3.92738 68.0522 1.97394V3.90183C75.7668 5.50404 85.6026 9.33156 90.6332 12.8675Z" fill="#7A868E"/>
<path id="Vector_23" d="M100.748 22.8099H103.683C100.429 17.2726 96.7051 14.107 92.6826 11.49V14.2706C95.664 16.3645 98.8585 19.4864 100.748 22.8099Z" fill="#7A868E"/>
<path id="Vector_24" d="M55.4689 14.5498V12.8006C52.8296 12.3031 48.1889 11.9874 46.1496 12.2527V13.6236C49.2119 13.4641 53.7204 14.0334 55.4689 14.5498Z" fill="#7A868E"/>
<path id="Vector_25" d="M44.0953 13.7492V12.4395C39.1952 12.9518 35.8345 14.635 33.8902 16.0712V17.1983C36.6666 14.9573 40.5123 14.0293 44.0953 13.7492Z" fill="#7A868E"/>
<path id="Vector_26" d="M32.7581 18.3725V17.0983C28.2504 22.1628 33.8902 26.3804 34.4901 26.8002V25.0682C31.3376 22.6859 31.7078 19.7814 32.7581 18.3725Z" fill="#7A868E"/>
<path id="Vector_27" d="M36.1965 26.1417V27.9984C39.2571 29.6923 42.3377 30.7633 46.7197 31.5483L46.6883 29.0313C43.7102 28.8512 39.6174 28.0017 36.1965 26.1417Z" fill="#7A868E"/>
<path id="Vector_28" d="M48.1823 29.1106L48.1691 31.7284C50.7307 31.9417 53.1502 32.0061 54.469 32.0044V29.0594C52.5239 29.1899 48.9194 29.2147 48.1823 29.1106Z" fill="#7A868E"/>
<path id="Vector_29" d="M57.8157 12.161V10.3761C54.6607 9.73656 48.5459 9.26059 44.9225 9.5994V10.9876C49.7044 10.8108 54.4327 11.4223 57.8157 12.161Z" fill="#7A868E"/>
<path id="Vector_30" d="M45.0663 36.5956V33.7934C40.3744 33.3778 33.1613 31.74 28.6818 28.452V30.3212C33.5944 34.0256 41.3635 36.0799 45.0663 36.5956Z" fill="#7A868E"/>
<path id="Vector_31" d="M26.9812 28.9181V27.0671C23.0066 23.2875 23.7825 19.4426 26.3491 16.9652V15.8076C21.4159 20.2871 23.2231 25.7095 26.9812 28.9181Z" fill="#7A868E"/>
<path id="Vector_32" d="M46.7148 33.9438V36.8451C49.5705 37.2467 52.0462 37.3755 54.469 37.3755V34.1735C51.8562 34.1876 47.8749 34.0521 46.7148 33.9438Z" fill="#7A868E"/>
<path id="Vector_33" d="M27.6786 14.7168V15.8076C31.9532 12.627 38.3639 11.3446 42.8699 11.1008V9.76794C37.2896 10.1323 30.879 12.2709 27.6786 14.7168Z" fill="#7A868E"/>
<path id="Vector_34" d="M20.7234 30.6154V32.6209C26.8556 38.1515 36.9442 41.1631 43.0393 42.2142V39.0885C37.4236 38.4589 27.2763 36.2815 20.7234 30.6154Z" fill="#7A868E"/>
<path id="Vector_35" d="M60.4021 9.53321V7.7715C56.439 7.05015 49.592 6.26348 43.1789 6.85012V8.24578C48.569 7.87067 56.1763 8.57139 60.4021 9.53321Z" fill="#7A868E"/>
<path id="Vector_36" d="M44.844 39.2922V42.5264C47.5626 43.0702 52.033 43.323 54.469 43.4123V39.8078C53.018 39.8591 46.657 39.4938 44.844 39.2922Z" fill="#7A868E"/>
<path id="Vector_37" d="M41.1214 8.37559V7.01953C36.3543 7.42941 27.8299 9.12749 22.1753 12.9551V14.0532C27.6786 10.305 36.1965 8.64247 41.1214 8.37559Z" fill="#7A868E"/>
<path id="Vector_38" d="M20.6235 15.1704V14.0532C18.0362 16.0042 11.6933 22.5826 19.0361 30.9086V28.8891C17.4041 27.0646 13.4641 21.1547 20.6235 15.1704Z" fill="#7A868E"/>
<path id="Vector_39" d="M63.1571 6.64443V4.83636C58.3577 3.89442 49.007 3.07965 41.6544 3.801V5.19835C48.1542 4.69589 57.3992 5.42808 63.1571 6.64443Z" fill="#7A868E"/>
<path id="Vector_40" d="M42.8434 44.8319V48.2529C46.4635 48.9569 50.9703 49.3933 54.469 49.5123V45.6302C50.2845 45.5591 46.6751 45.3608 42.8434 44.8319Z" fill="#7A868E"/>
<path id="Vector_41" d="M40.8669 47.929V44.6187C30.8038 43.1958 19.7153 39.5302 12.8444 32.7927V34.9279C20.9845 43.0371 34.4884 46.7754 40.8669 47.929Z" fill="#7A868E"/>
<path id="Vector_42" d="M16.6157 11.0173V12.094C23.3429 7.81205 32.5598 5.97174 39.6001 5.3471V3.98529C32.8316 4.57192 22.919 6.87747 16.6157 11.0173Z" fill="#7A868E"/>
<path id="Vector_43" d="M11.1463 32.8597V30.6591C8.51198 27.068 5.92806 19.9847 15.03 13.2013V12.0941C4.80758 19.4029 7.35511 28.3488 11.1463 32.8597Z" fill="#7A868E"/>
<path id="Vector_44" d="M4.08783 34.2404V36.6252C11.8098 46.6433 27.7547 52.5399 37.669 54.6289V50.9715C27.2522 49.2081 11.4256 44.1048 4.08783 34.2404Z" fill="#7A868E"/>
<path id="Vector_45" d="M66.1087 3.48783V1.61037C61.3623 0.618843 49.8251 -0.660297 39.6645 0.397403V1.84011C48.1608 1.09228 58.8816 2.00461 66.1087 3.48783Z" fill="#7A868E"/>
<path id="Vector_46" d="M37.6119 2.01535V0.604797C28.795 1.5046 17.8478 4.55383 11.4504 8.73419V9.85223C19.4873 4.92401 30.1518 2.72096 37.6119 2.01535Z" fill="#7A868E"/>
<path id="Vector_47" d="M39.8224 51.3203V55.0701C42.0865 55.6469 50.6795 56.8765 54.469 56.9063V52.6077C48.6864 52.4242 42.779 51.7962 39.8224 51.3203Z" fill="#7A868E"/>
<path id="Vector_48" d="M9.72664 10.9876V9.85223C7.13858 11.5214 -5.11416 20.7201 2.41286 33.9959V31.3186C-2.29475 21.5324 4.88111 14.43 9.72664 10.9876Z" fill="#7A868E"/>
</g>
</g>
<g id="Group_2">
<path id="Vector_49" d="M132.433 29.3341H130.673V31.6884H132.675V32.7113H129.496V25.2971H132.543V26.3201H130.673V28.3554H132.433V29.3341Z" fill="#7A868E"/>
<path id="Vector_50" d="M137.061 31.1604C137.061 31.7322 137.082 32.2602 137.104 32.7114H136.092L136.015 32.1503H135.993C135.785 32.4693 135.367 32.7994 134.795 32.7994C133.815 32.7994 133.43 32.0623 133.43 30.6654V27.3543H134.596V30.5225C134.596 31.2814 134.739 31.8202 135.223 31.8202C135.575 31.8202 135.762 31.5012 135.818 31.2922C135.862 31.1715 135.884 31.0063 135.884 30.8303V27.3543H137.061L137.061 31.1604Z" fill="#7A868E"/>
<path id="Vector_51" d="M138.206 28.8611C138.206 28.3661 138.173 27.8162 138.161 27.3543H139.184L139.25 28.1682H139.283C139.492 27.6183 139.933 27.2663 140.372 27.2663C140.482 27.2663 140.548 27.277 140.615 27.2882V28.4653C140.548 28.443 140.472 28.443 140.372 28.443C139.966 28.443 139.548 28.7843 139.426 29.3672C139.393 29.499 139.383 29.675 139.383 29.8841V32.7114H138.206V28.8611Z" fill="#7A868E"/>
<path id="Vector_52" d="M144.923 30.0163C144.923 32.1834 143.812 32.7994 142.998 32.7994C141.865 32.7994 141.084 31.8532 141.084 30.0494C141.084 28.1133 142.041 27.2663 143.041 27.2663C144.164 27.2663 144.923 28.2562 144.923 30.0163ZM142.261 30.0271C142.261 30.9294 142.415 31.8975 143.041 31.8975C143.625 31.8975 143.757 30.8303 143.757 30.0271C143.757 29.2462 143.625 28.1794 143.02 28.1794C142.382 28.1794 142.261 29.2462 142.261 30.0271Z" fill="#7A868E"/>
<path id="Vector_53" d="M145.848 29.0371C145.848 28.3223 145.815 27.8051 145.803 27.3543H146.826L146.892 28.0034H146.914C147.167 27.508 147.575 27.2663 148.036 27.2663C149.103 27.2663 149.642 28.4211 149.642 30.0271C149.642 31.9632 148.818 32.7994 147.948 32.7994C147.476 32.7994 147.19 32.5135 147.035 32.2383H147.013V34.8235H145.848V29.0371ZM147.013 30.7534C147.013 30.9182 147.035 31.0831 147.068 31.2042C147.211 31.7214 147.486 31.8313 147.673 31.8313C148.267 31.8313 148.476 30.9843 148.476 30.0382C148.476 28.9822 148.223 28.267 147.684 28.267C147.387 28.267 147.124 28.5971 147.057 28.9491C147.024 29.0702 147.013 29.2024 147.013 29.3453L147.013 30.7534Z" fill="#7A868E"/>
<path id="Vector_54" d="M151.53 30.3464C151.541 31.5454 152.101 31.8756 152.729 31.8756C153.114 31.8756 153.444 31.7871 153.686 31.6772L153.852 32.5242C153.521 32.6783 153.004 32.7775 152.509 32.7775C151.134 32.7775 150.386 31.7764 150.386 30.1155C150.386 28.3442 151.244 27.2663 152.388 27.2663C153.509 27.2663 154.082 28.2893 154.082 29.7193C154.082 30.0271 154.06 30.2031 154.049 30.3464H151.53ZM152.993 29.5102C153.004 28.6521 152.718 28.1463 152.3 28.1463C151.794 28.1463 151.563 28.8834 151.541 29.5102H152.993Z" fill="#7A868E"/>
<path id="Vector_55" d="M157.246 32.7114L157.18 32.1615H157.158C156.883 32.5796 156.488 32.7994 156.026 32.7994C155.255 32.7994 154.673 32.1503 154.673 31.2153C154.673 29.8403 155.838 29.2573 157.049 29.2462V29.1032C157.049 28.5533 156.828 28.1571 156.245 28.1571C155.86 28.1571 155.541 28.267 155.245 28.4541L155.025 27.6514C155.288 27.4861 155.85 27.2663 156.498 27.2663C157.884 27.2663 158.236 28.212 158.236 29.3561V31.4905C158.236 31.9082 158.248 32.3594 158.302 32.7114H157.246ZM157.082 30.0271C156.62 30.0382 155.794 30.1593 155.794 31.0943C155.794 31.6995 156.114 31.9194 156.378 31.9194C156.664 31.9194 156.949 31.7214 157.049 31.3033C157.071 31.2265 157.082 31.1273 157.082 31.0282V30.0271Z" fill="#7A868E"/>
<path id="Vector_56" d="M159.355 28.8611C159.355 28.2562 159.333 27.8274 159.311 27.3543H160.334L160.389 27.9811H160.411C160.664 27.5522 161.115 27.2663 161.676 27.2663C162.578 27.2663 163.052 27.9592 163.052 29.2024V32.7114H161.874V29.3123C161.874 28.7843 161.764 28.2562 161.247 28.2562C160.961 28.2562 160.697 28.476 160.588 28.9161C160.555 29.0264 160.532 29.2024 160.532 29.4003V32.7114H159.355V28.8611Z" fill="#7A868E"/>
<path id="Vector_57" d="M166.087 25.4071C166.472 25.3191 166.946 25.2641 167.473 25.2641C168.254 25.2641 168.881 25.4071 169.321 25.8252C169.717 26.1991 169.915 26.7713 169.915 27.4093C169.915 28.1571 169.706 28.6744 169.365 29.0702C168.925 29.5875 168.21 29.8291 167.583 29.8291C167.462 29.8291 167.363 29.8291 167.253 29.8291V32.7114H166.087L166.087 25.4071ZM167.253 28.8611C167.341 28.8834 167.429 28.8834 167.539 28.8834C168.309 28.8834 168.738 28.3554 168.738 27.4973C168.738 26.804 168.452 26.221 167.659 26.221C167.506 26.221 167.352 26.2433 167.253 26.2759V28.8611Z" fill="#7A868E"/>
<path id="Vector_58" d="M172.936 32.7114L172.87 32.1615H172.849C172.574 32.5796 172.178 32.7994 171.716 32.7994C170.946 32.7994 170.363 32.1503 170.363 31.2153C170.363 29.8403 171.528 29.2573 172.739 29.2462V29.1032C172.739 28.5533 172.518 28.1571 171.936 28.1571C171.551 28.1571 171.232 28.267 170.935 28.4541L170.715 27.6514C170.979 27.4861 171.54 27.2663 172.189 27.2663C173.574 27.2663 173.926 28.212 173.926 29.3561V31.4905C173.926 31.9082 173.938 32.3594 173.992 32.7114H172.936ZM172.772 30.0271C172.31 30.0382 171.485 30.1593 171.485 31.0943C171.485 31.6995 171.804 31.9194 172.068 31.9194C172.354 31.9194 172.64 31.7214 172.739 31.3033C172.761 31.2265 172.772 31.1273 172.772 31.0282V30.0271Z" fill="#7A868E"/>
<path id="Vector_59" d="M175.045 28.8611C175.045 28.3661 175.012 27.8162 175.001 27.3543H176.024L176.09 28.1682H176.124C176.333 27.6183 176.772 27.2663 177.213 27.2663C177.323 27.2663 177.389 27.277 177.455 27.2882V28.4653C177.389 28.443 177.311 28.443 177.213 28.443C176.805 28.443 176.387 28.7843 176.266 29.3672C176.233 29.499 176.223 29.675 176.223 29.8841V32.7114H175.045L175.045 28.8611Z" fill="#7A868E"/>
<path id="Vector_60" d="M178.133 25.0988H179.31V32.7114H178.133V25.0988Z" fill="#7A868E"/>
<path id="Vector_61" d="M181.669 25.957C181.681 26.3532 181.405 26.628 181.02 26.628C180.679 26.628 180.405 26.3532 180.415 25.957C180.405 25.5393 180.691 25.2748 181.043 25.2748C181.405 25.2748 181.669 25.5393 181.669 25.957ZM180.459 32.7114V27.3543H181.637V32.7114H180.459Z" fill="#7A868E"/>
<path id="Vector_62" d="M185.008 32.7114L184.942 32.1615H184.92C184.645 32.5796 184.249 32.7994 183.788 32.7994C183.018 32.7994 182.434 32.1503 182.434 31.2153C182.434 29.8403 183.6 29.2573 184.811 29.2462V29.1032C184.811 28.5533 184.59 28.1571 184.008 28.1571C183.622 28.1571 183.303 28.267 183.006 28.4541L182.786 27.6514C183.051 27.4861 183.611 27.2663 184.26 27.2663C185.646 27.2663 185.998 28.212 185.998 29.3561V31.4905C185.998 31.9082 186.009 32.3594 186.064 32.7114H185.008ZM184.844 30.0271C184.381 30.0382 183.556 30.1593 183.556 31.0943C183.556 31.6995 183.875 31.9194 184.14 31.9194C184.426 31.9194 184.712 31.7214 184.811 31.3033C184.832 31.2265 184.844 31.1273 184.844 31.0282V30.0271Z" fill="#7A868E"/>
<path id="Vector_63" d="M187.117 28.8611C187.117 28.2562 187.095 27.8274 187.073 27.3543H188.096L188.162 27.9922H188.184C188.437 27.5853 188.866 27.2663 189.427 27.2663C189.977 27.2663 190.383 27.5303 190.571 28.036H190.593C190.735 27.8051 190.923 27.596 191.132 27.4642C191.352 27.332 191.605 27.2663 191.88 27.2663C192.727 27.2663 193.222 27.9261 193.222 29.2462V32.7114H192.056V29.4664C192.056 28.8173 191.968 28.2451 191.44 28.2451C191.143 28.2451 190.901 28.476 190.791 28.8723C190.769 28.9822 190.758 29.1363 190.758 29.3011V32.7114H189.581V29.2904C189.581 28.8061 189.515 28.2451 188.987 28.2451C188.712 28.2451 188.437 28.4653 188.337 28.9053C188.304 29.0152 188.283 29.1693 188.283 29.323V32.7114H187.117V28.8611Z" fill="#7A868E"/>
<path id="Vector_64" d="M195.274 30.3464C195.284 31.5454 195.846 31.8756 196.472 31.8756C196.857 31.8756 197.187 31.7871 197.429 31.6772L197.594 32.5242C197.264 32.6783 196.747 32.7775 196.252 32.7775C194.877 32.7775 194.129 31.7764 194.129 30.1155C194.129 28.3442 194.987 27.2663 196.131 27.2663C197.254 27.2663 197.825 28.2893 197.825 29.7193C197.825 30.0271 197.803 30.2031 197.792 30.3464H195.274ZM196.736 29.5102C196.747 28.6521 196.461 28.1463 196.043 28.1463C195.537 28.1463 195.307 28.8834 195.284 29.5102H196.736Z" fill="#7A868E"/>
<path id="Vector_65" d="M198.716 28.8611C198.716 28.2562 198.694 27.8274 198.672 27.3543H199.695L199.75 27.9811H199.772C200.025 27.5522 200.476 27.2663 201.037 27.2663C201.939 27.2663 202.412 27.9592 202.412 29.2024V32.7114H201.235V29.3123C201.235 28.7843 201.125 28.2562 200.608 28.2562C200.323 28.2562 200.058 28.476 199.948 28.9161C199.915 29.0264 199.893 29.2024 199.893 29.4003V32.7114H198.716L198.716 28.8611Z" fill="#7A868E"/>
<path id="Vector_66" d="M204.9 25.9239V27.3543H205.935V28.212H204.9V30.9843C204.9 31.6442 205.153 31.8094 205.451 31.8094C205.583 31.8094 205.693 31.7983 205.813 31.7764L205.836 32.6895C205.66 32.7444 205.396 32.7775 205.066 32.7775C204.692 32.7775 204.35 32.6783 204.12 32.4473C203.856 32.1833 203.724 31.7871 203.724 30.9955V28.212H203.086V27.3543H203.724V26.221L204.9 25.9239Z" fill="#7A868E"/>
<path id="Vector_67" d="M132.433 41.6035H130.673V43.9577H132.675V44.9807H129.496V37.5665H132.543V38.5895H130.673V40.6247H132.433V41.6035Z" fill="#0C4DA2"/>
<path id="Vector_68" d="M134.618 37.5665V42.4505C134.618 43.6495 134.992 44.0345 135.466 44.0345C135.971 44.0345 136.312 43.6606 136.312 42.4505V37.5665H137.489V42.2526C137.489 44.1668 136.742 45.0687 135.454 45.0687C134.101 45.0687 133.441 44.1556 133.441 42.3075V37.5665H134.618Z" fill="#0C4DA2"/>
<path id="Vector_69" d="M138.716 37.6763C139.123 37.5772 139.64 37.5334 140.134 37.5334C140.894 37.5334 141.532 37.6652 141.972 38.0722C142.379 38.4684 142.532 38.9633 142.532 39.5794C142.532 40.4375 142.114 41.1085 141.367 41.4494V41.4717C141.884 41.6584 142.159 42.1534 142.302 43.0334C142.466 43.9358 142.643 44.7278 142.764 44.9807H141.543C141.443 44.7716 141.29 44.0457 141.157 43.1764C141.015 42.2195 140.739 41.9005 140.157 41.9005H139.882V44.9807H138.716V37.6763ZM139.882 40.9986H140.19C140.894 40.9986 141.334 40.4487 141.334 39.6893C141.334 38.9634 141.048 38.4684 140.278 38.4572C140.134 38.4572 139.981 38.4684 139.882 38.5014V40.9986Z" fill="#0C4DA2"/>
<path id="Vector_70" d="M147.705 41.1746C147.705 43.9689 146.726 45.0687 145.416 45.0687C143.942 45.0687 143.206 43.4958 143.206 41.2626C143.206 39.0406 144.041 37.4785 145.527 37.4785C147.089 37.4785 147.705 39.1836 147.705 41.1746ZM144.426 41.2734C144.426 42.8905 144.735 44.0457 145.482 44.0457C146.242 44.0457 146.484 42.7145 146.484 41.2296C146.484 39.8876 146.264 38.5015 145.472 38.5015C144.735 38.5015 144.426 39.7224 144.426 41.2734Z" fill="#0C4DA2"/>
<path id="Vector_71" d="M148.662 37.6763C149.047 37.5883 149.52 37.5334 150.048 37.5334C150.829 37.5334 151.456 37.6763 151.896 38.0945C152.291 38.4684 152.49 39.0406 152.49 39.6785C152.49 40.4264 152.281 40.9436 151.939 41.3395C151.5 41.8567 150.785 42.0984 150.158 42.0984C150.037 42.0984 149.938 42.0984 149.827 42.0984V44.9807H148.662V37.6763ZM149.827 41.1304C149.916 41.1527 150.004 41.1527 150.113 41.1527C150.883 41.1527 151.313 40.6247 151.313 39.7665C151.313 39.0733 151.027 38.4903 150.235 38.4903C150.081 38.4903 149.926 38.5126 149.827 38.5452V41.1304Z" fill="#0C4DA2"/>
<path id="Vector_72" d="M156.238 41.6035H154.478V43.9577H156.48V44.9807H153.301V37.5665H156.348V38.5895H154.478V40.6247H156.238V41.6035Z" fill="#0C4DA2"/>
<path id="Vector_73" d="M158.605 43.0446L158.209 44.9807H157.064L158.714 37.5665H160.09L161.619 44.9807H160.475L160.079 43.0446H158.605ZM159.958 42.1315L159.65 40.4264C159.561 39.9426 159.462 39.2604 159.375 38.7436H159.342C159.265 39.2604 159.155 39.9645 159.066 40.4264L158.737 42.1315H159.958Z" fill="#0C4DA2"/>
<path id="Vector_74" d="M162.412 44.9807V37.5665H163.501L164.744 40.7346C164.998 41.4056 165.372 42.3625 165.603 43.0777H165.625C165.57 42.1315 165.504 40.9875 165.504 39.6563V37.5665H166.537V44.9807H165.448L164.195 41.8237C163.931 41.1416 163.601 40.2504 163.391 39.4695H163.369C163.414 40.3276 163.458 41.3725 163.458 42.9128V44.9807L162.412 44.9807Z" fill="#0C4DA2"/>
<path id="Vector_75" d="M169.684 37.6763C170.069 37.5883 170.542 37.5334 171.07 37.5334C171.851 37.5334 172.478 37.6763 172.918 38.0945C173.313 38.4684 173.512 39.0406 173.512 39.6785C173.512 40.4264 173.302 40.9436 172.961 41.3395C172.522 41.8567 171.807 42.0984 171.18 42.0984C171.059 42.0984 170.96 42.0984 170.849 42.0984V44.9807H169.684V37.6763ZM170.849 41.1304C170.937 41.1527 171.026 41.1527 171.135 41.1527C171.905 41.1527 172.335 40.6247 172.335 39.7665C172.335 39.0733 172.049 38.4903 171.256 38.4903C171.103 38.4903 170.948 38.5126 170.849 38.5452V41.1304Z" fill="#0C4DA2"/>
<path id="Vector_76" d="M175.091 43.0446L174.695 44.9807H173.551L175.201 37.5665H176.576L178.105 44.9807H176.961L176.566 43.0446H175.091ZM176.444 42.1315L176.136 40.4264C176.048 39.9426 175.949 39.2604 175.862 38.7436H175.829C175.751 39.2604 175.641 39.9645 175.553 40.4264L175.224 42.1315H176.444Z" fill="#0C4DA2"/>
<path id="Vector_77" d="M178.899 37.6763C179.306 37.5772 179.823 37.5334 180.318 37.5334C181.077 37.5334 181.715 37.6652 182.155 38.0722C182.562 38.4684 182.717 38.9633 182.717 39.5794C182.717 40.4375 182.299 41.1085 181.55 41.4494V41.4717C182.067 41.6584 182.342 42.1534 182.485 43.0334C182.651 43.9358 182.826 44.7278 182.947 44.9807H181.726C181.628 44.7716 181.473 44.0457 181.342 43.1764C181.198 42.2195 180.924 41.9005 180.34 41.9005H180.065V44.9807H178.899V37.6763ZM180.065 40.9986H180.373C181.077 40.9986 181.517 40.4487 181.517 39.6893C181.517 38.9634 181.231 38.4684 180.461 38.4572C180.318 38.4572 180.164 38.4684 180.065 38.5014V40.9986Z" fill="#0C4DA2"/>
<path id="Vector_78" d="M183.742 37.5665H184.92V43.9908H186.9V44.9807H183.742L183.742 37.5665Z" fill="#0C4DA2"/>
<path id="Vector_79" d="M188.855 37.5665V44.9807H187.677V37.5665H188.855Z" fill="#0C4DA2"/>
<path id="Vector_80" d="M191.149 43.0446L190.754 44.9807H189.61L191.259 37.5665H192.634L194.164 44.9807H193.019L192.624 43.0446H191.149ZM192.502 42.1315L192.195 40.4264C192.107 39.9426 192.008 39.2604 191.92 38.7436H191.887C191.81 39.2604 191.7 39.9645 191.611 40.4264L191.282 42.1315H192.502Z" fill="#0C4DA2"/>
<path id="Vector_81" d="M199.584 42.1204C199.54 41.2845 199.496 40.2727 199.507 39.4583H199.474C199.331 40.2727 199.133 41.1635 198.957 41.8787L198.187 44.8927H197.384L196.658 41.9555C196.46 41.2077 196.262 40.2834 196.13 39.4583H196.097C196.085 40.2946 196.042 41.2734 195.998 42.1534L195.865 44.9807H194.842L195.338 37.5665H196.581L197.296 40.5693C197.526 41.5267 197.714 42.3075 197.857 43.1438H197.878C198.011 42.3075 198.176 41.5374 198.396 40.5693L199.089 37.5665H200.354L200.794 44.9807H199.727L199.584 42.1204Z" fill="#0C4DA2"/>
<path id="Vector_82" d="M204.796 41.6035H203.036V43.9577H205.038V44.9807H201.859V37.5665H204.905V38.5895H203.036V40.6247H204.796V41.6035Z" fill="#0C4DA2"/>
<path id="Vector_83" d="M205.913 44.9807V37.5665H207.003L208.245 40.7346C208.499 41.4056 208.873 42.3625 209.104 43.0777H209.126C209.071 42.1315 209.005 40.9875 209.005 39.6563V37.5665H210.039V44.9807H208.949L207.696 41.8237C207.432 41.1416 207.102 40.2504 206.893 39.4695H206.87C206.915 40.3276 206.959 41.3725 206.959 42.9128V44.9807L205.913 44.9807Z" fill="#0C4DA2"/>
<path id="Vector_84" d="M212.126 38.6444H210.795V37.5665H214.645V38.6444H213.303V44.9807H212.126V38.6444Z" fill="#0C4DA2"/>
<path id="Vector_85" d="M216.01 43.0446L215.614 44.9807H214.469L216.119 37.5665H217.495L219.024 44.9807H217.88L217.484 43.0446H216.01ZM217.363 42.1315L217.055 40.4264C216.966 39.9426 216.867 39.2604 216.78 38.7436H216.747C216.67 39.2604 216.56 39.9645 216.471 40.4264L216.142 42.1315H217.363Z" fill="#0C4DA2"/>
<path id="Vector_86" d="M219.817 37.6763C220.225 37.5772 220.741 37.5334 221.237 37.5334C221.995 37.5334 222.633 37.6652 223.074 38.0722C223.481 38.4684 223.635 38.9633 223.635 39.5794C223.635 40.4375 223.217 41.1085 222.469 41.4494V41.4717C222.985 41.6584 223.261 42.1534 223.404 43.0334C223.569 43.9358 223.745 44.7278 223.866 44.9807H222.645C222.546 44.7716 222.392 44.0457 222.26 43.1764C222.117 42.2195 221.842 41.9005 221.258 41.9005H220.984V44.9807H219.817V37.6763ZM220.984 40.9986H221.291C221.995 40.9986 222.436 40.4487 222.436 39.6893C222.436 38.9634 222.149 38.4684 221.38 38.4572C221.237 38.4572 221.083 38.4684 220.984 38.5014V40.9986Z" fill="#0C4DA2"/>
<path id="Vector_87" d="M225.56 44.9807V42.0105L223.932 37.5665H225.187L225.759 39.3703C225.912 39.8653 226.078 40.4375 226.22 40.9986H226.243C226.353 40.4375 226.507 39.8876 226.672 39.3373L227.2 37.5665H228.421L226.738 41.9667V44.9807L225.56 44.9807Z" fill="#0C4DA2"/>
<path id="Vector_88" d="M129.496 49.9457C129.903 49.8465 130.42 49.8027 130.915 49.8027C131.675 49.8027 132.312 49.9345 132.752 50.3415C133.159 50.7377 133.313 51.2327 133.313 51.8487C133.313 52.7069 132.895 53.3778 132.147 53.7187V53.741C132.664 53.9278 132.939 54.4227 133.083 55.3028C133.247 56.2051 133.423 56.9972 133.544 57.25H132.323C132.224 57.041 132.07 56.315 131.938 55.4457C131.795 54.4889 131.52 54.1699 130.937 54.1699H130.661V57.25H129.496V49.9457ZM130.661 53.2679H130.97C131.675 53.2679 132.114 52.718 132.114 51.9586C132.114 51.2327 131.828 50.7377 131.058 50.7266C130.915 50.7266 130.761 50.7377 130.661 50.7708V53.2679Z" fill="#0C4DA2"/>
<path id="Vector_89" d="M137.276 53.8728H135.516V56.227H137.518V57.25H134.339V49.8358H137.386V50.8587H135.516V52.894H137.276V53.8728Z" fill="#0C4DA2"/>
<path id="Vector_90" d="M138.364 55.9961C138.64 56.1609 139.124 56.2931 139.509 56.2931C140.235 56.2931 140.63 55.8638 140.63 55.259C140.63 54.6648 140.268 54.324 139.663 53.9058C138.837 53.3778 138.265 52.6407 138.265 51.838C138.265 50.6828 139.047 49.7697 140.433 49.7697C140.906 49.7697 141.346 49.9126 141.544 50.0337L141.324 51.0455C141.126 50.9137 140.807 50.7926 140.41 50.7926C139.739 50.7926 139.421 51.2438 139.421 51.6946C139.421 52.2668 139.718 52.5308 140.477 53.0146C141.412 53.6307 141.785 54.3459 141.785 55.1379C141.785 56.4691 140.84 57.3161 139.509 57.3161C138.948 57.3161 138.398 57.162 138.166 57.0079L138.364 55.9961Z" fill="#0C4DA2"/>
<path id="Vector_91" d="M145.577 53.8728H143.817V56.227H145.82V57.25H142.64V49.8358H145.687V50.8587H143.817V52.894H145.577V53.8728Z" fill="#0C4DA2"/>
<path id="Vector_92" d="M147.944 55.3139L147.548 57.25H146.405L148.054 49.8358H149.429L150.959 57.25H149.814L149.418 55.3139H147.944ZM149.297 54.4008L148.989 52.6957C148.902 52.2119 148.803 51.5297 148.714 51.0129H148.681C148.604 51.5297 148.494 52.2338 148.406 52.6957L148.076 54.4008H149.297Z" fill="#0C4DA2"/>
<path id="Vector_93" d="M151.753 49.9457C152.159 49.8465 152.676 49.8027 153.171 49.8027C153.931 49.8027 154.569 49.9345 155.008 50.3415C155.416 50.7377 155.57 51.2327 155.57 51.8487C155.57 52.7069 155.152 53.3778 154.404 53.7187V53.741C154.921 53.9278 155.196 54.4227 155.339 55.3028C155.504 56.2051 155.679 56.9972 155.801 57.25H154.58C154.481 57.041 154.327 56.315 154.195 55.4457C154.051 54.4889 153.777 54.1699 153.194 54.1699H152.919V57.25H151.753V49.9457ZM152.919 53.2679H153.227C153.931 53.2679 154.37 52.718 154.37 51.9586C154.37 51.2327 154.085 50.7377 153.314 50.7266C153.171 50.7266 153.018 50.7377 152.919 50.7708V53.2679Z" fill="#0C4DA2"/>
<path id="Vector_94" d="M159.972 57.1289C159.751 57.2388 159.366 57.3161 158.883 57.3161C157.189 57.3161 156.221 55.9299 156.221 53.6418C156.221 50.7926 157.728 49.7697 159.047 49.7697C159.532 49.7697 159.862 49.8688 160.016 49.9568L159.796 50.9468C159.62 50.8695 159.444 50.8038 159.092 50.8038C158.289 50.8038 157.464 51.5409 157.464 53.565C157.464 55.556 158.212 56.2708 159.103 56.2708C159.378 56.2708 159.653 56.2158 159.829 56.139L159.972 57.1289Z" fill="#0C4DA2"/>
<path id="Vector_95" d="M161.938 49.8358V52.9047H163.698V49.8358H164.875V57.25H163.698V53.9827H161.938V57.25H160.76V49.8358H161.938Z" fill="#0C4DA2"/>
<path id="Vector_96" d="M167.855 55.9961C168.13 56.1609 168.615 56.2931 168.999 56.2931C169.725 56.2931 170.121 55.8638 170.121 55.259C170.121 54.6648 169.758 54.324 169.153 53.9058C168.328 53.3778 167.756 52.6407 167.756 51.838C167.756 50.6828 168.537 49.7697 169.924 49.7697C170.396 49.7697 170.836 49.9126 171.034 50.0337L170.814 51.0455C170.616 50.9137 170.297 50.7926 169.901 50.7926C169.23 50.7926 168.911 51.2438 168.911 51.6946C168.911 52.2668 169.208 52.5308 169.967 53.0146C170.902 53.6307 171.276 54.3459 171.276 55.1379C171.276 56.4691 170.33 57.3161 168.999 57.3161C168.438 57.3161 167.888 57.162 167.657 57.0079L167.855 55.9961Z" fill="#0C4DA2"/>
<path id="Vector_97" d="M175.068 53.8728H173.308V56.227H175.31V57.25H172.131V49.8358H175.177V50.8587H173.308V52.894H175.068V53.8728Z" fill="#0C4DA2"/>
<path id="Vector_98" d="M176.186 49.9457C176.594 49.8465 177.11 49.8027 177.605 49.8027C178.365 49.8027 179.002 49.9345 179.443 50.3415C179.849 50.7377 180.003 51.2327 180.003 51.8487C180.003 52.7069 179.585 53.3778 178.837 53.7187V53.741C179.354 53.9278 179.63 54.4227 179.773 55.3028C179.937 56.2051 180.114 56.9972 180.235 57.25H179.013C178.914 57.041 178.76 56.315 178.628 55.4457C178.485 54.4889 178.21 54.1699 177.627 54.1699H177.352V57.25H176.186V49.9457ZM177.352 53.2679H177.661C178.365 53.2679 178.805 52.718 178.805 51.9586C178.805 51.2327 178.518 50.7377 177.749 50.7266C177.605 50.7266 177.451 50.7377 177.352 50.7708V53.2679Z" fill="#0C4DA2"/>
<path id="Vector_99" d="M182.117 57.25L180.445 49.8358H181.732L182.348 53.1576C182.491 53.9719 182.679 54.9507 182.788 55.8531H182.821C182.92 54.94 183.085 53.9938 183.228 53.1357L183.833 49.8358H185.11L183.394 57.25H182.117Z" fill="#0C4DA2"/>
<path id="Vector_100" d="M187.004 49.8358V57.25H185.826V49.8358H187.004Z" fill="#0C4DA2"/>
<path id="Vector_101" d="M191.701 57.1289C191.481 57.2388 191.096 57.3161 190.612 57.3161C188.918 57.3161 187.949 55.9299 187.949 53.6418C187.949 50.7926 189.456 49.7697 190.777 49.7697C191.261 49.7697 191.59 49.8688 191.744 49.9568L191.525 50.9468C191.349 50.8695 191.173 50.8038 190.821 50.8038C190.017 50.8038 189.192 51.5409 189.192 53.565C189.192 55.556 189.941 56.2708 190.831 56.2708C191.107 56.2708 191.382 56.2158 191.558 56.139L191.701 57.1289Z" fill="#0C4DA2"/>
<path id="Vector_102" d="M195.426 53.8728H193.666V56.227H195.668V57.25H192.489V49.8358H195.536V50.8587H193.666V52.894H195.426L195.426 53.8728Z" fill="#0C4DA2"/>
</g>
</g>
</svg>
